<svg
  version="1.1"
  id="Layer_1"
  xmlns="http://www.w3.org/2000/svg"
  xmlns:xlink="http://www.w3.org/1999/xlink"
  x="0px"
  y="0px"
  width="300.667px"
  height="138.844px"
  viewBox="0 0 300.667 138.844"
  enable-background="new 0 0 300.667 138.844"
  xml:space="preserve"
>

  <polygon
    fill="#A88D57"
    points="
      184.95,94.882
      254.434,94.882
      254.434,44.714
      231.174,44.714
      231.174,71.622
      208.21,71.622
      208.21,23.26
      277.407,23.26
      277.407,115.583
      161.97,115.583
      161.97,0.004
      0,0.004
      0,138.844
      115.733,138.844
      115.733,43.97
      46.235,43.97
      46.235,94.124
      69.495,94.124
      69.495,67.23
      92.473,67.23
      92.473,115.583
      23.26,115.583
      23.26,23.265
      138.71,23.265
      138.71,138.844
      300.667,138.844
      300.667,0
      184.95,0
    "

  />

</svg>
