<?xml version="1.0" encoding="UTF-8" standalone="no"?>
<!-- Created with Inkscape (http://www.inkscape.org/) -->

<svg
   xmlns:dc="http://purl.org/dc/elements/1.1/"
   xmlns:cc="http://creativecommons.org/ns#"
   xmlns:rdf="http://www.w3.org/1999/02/22-rdf-syntax-ns#"
   xmlns:svg="http://www.w3.org/2000/svg"
   xmlns="http://www.w3.org/2000/svg"
   xmlns:sodipodi="http://sodipodi.sourceforge.net/DTD/sodipodi-0.dtd"
   xmlns:inkscape="http://www.inkscape.org/namespaces/inkscape"
   id="svg2"
   version="1.1"
   inkscape:version="0.91 r13725"
   xml:space="preserve"
   width="143.42999"
   height="143.55"
   viewBox="0 0 143.42999 143.55"
   sodipodi:docname="en_AOP_4c.svg"><metadata
     id="metadata8"><rdf:RDF><cc:Work
         rdf:about=""><dc:format>image/svg+xml</dc:format><dc:type
           rdf:resource="http://purl.org/dc/dcmitype/StillImage" /><dc:title></dc:title></cc:Work></rdf:RDF></metadata><defs
     id="defs6"><clipPath
       clipPathUnits="userSpaceOnUse"
       id="clipPath20"><path
         d="m 0,158.738 158.738,0 L 158.738,0 0,0 0,158.738 Z"
         id="path22"
         inkscape:connector-curvature="0" /></clipPath></defs><sodipodi:namedview
     pagecolor="#ffffff"
     bordercolor="#666666"
     borderopacity="1"
     objecttolerance="10"
     gridtolerance="10"
     guidetolerance="10"
     inkscape:pageopacity="0"
     inkscape:pageshadow="2"
     inkscape:window-width="640"
     inkscape:window-height="480"
     id="namedview4"
     showgrid="false"
     inkscape:zoom="1.1893812"
     inkscape:cx="71.713747"
     inkscape:cy="71.773996"
     inkscape:window-x="0"
     inkscape:window-y="0"
     inkscape:window-maximized="0"
     inkscape:current-layer="g10"
     fit-margin-top="0"
     fit-margin-left="0"
     fit-margin-right="0"
     fit-margin-bottom="0" /><g
     id="g10"
     inkscape:groupmode="layer"
     inkscape:label="en_AOP_4c"
     transform="matrix(1.25,0,0,-1.25,-27.4975,170.98725)"><g
       id="g12"
       transform="translate(83.416,130.6348)"><path
         d="m 0,0 4.934,5.444 3.029,-6.711 5.723,4.608 1.943,-7.103 6.375,3.655 0.809,-7.32 6.867,2.612 -0.344,-7.356 7.187,1.504 -1.488,-7.211 7.336,0.36 -2.6,-6.889 7.303,-0.793 -3.642,-6.397 7.088,-1.927 -4.598,-5.747 6.699,-3.014 -5.439,-4.956 6.144,-4.027 -6.148,-4.045 5.443,-4.937 -6.707,-3.031 4.604,-5.729 -7.096,-1.945 3.65,-6.379 -7.31,-0.808 2.607,-6.875 -7.348,0.346 1.502,-7.196 -7.203,1.491 0.358,-7.345 -6.883,2.602 -0.793,-7.309 -6.393,3.648 -1.925,-7.095 -5.743,4.603 -3.011,-6.707 -4.953,5.446 -4.022,-6.152 -4.042,6.155 -4.934,-5.449 -3.029,6.709 -5.724,-4.605 -1.944,7.1 -6.374,-3.653 -0.809,7.32 -6.867,-2.61 0.345,7.355 -7.19,-1.504 1.49,7.212 -7.337,-0.361 2.599,6.891 -7.303,0.793 3.643,6.394 -7.088,1.93 4.599,5.748 -6.701,3.012 5.44,4.957 -6.147,4.026 6.147,4.043 -5.44,4.938 6.705,3.033 -4.603,5.73 7.096,1.946 -3.651,6.379 7.312,0.808 -2.608,6.873 7.348,-0.343 -1.502,7.196 7.204,-1.491 -0.358,7.342 6.883,-2.601 0.793,7.309 6.393,-3.646 1.926,7.095 5.743,-4.603 3.01,6.706 4.954,-5.442 4.023,6.148 L 0,0 Z"
         style="fill:#ee3248;fill-opacity:1;fill-rule:nonzero;stroke:none"
         id="path14"
         inkscape:connector-curvature="0" /></g><g
       id="g16"><g
         id="g18"
         clip-path="url(#clipPath20)"><g
           id="g24"
           transform="translate(29.1914,79.3701)"><path
             d="m 0,0 c 0,27.736 22.465,50.221 50.179,50.221 27.714,0 50.178,-22.485 50.178,-50.221 0,-27.735 -22.464,-50.219 -50.178,-50.219 C 22.465,-50.219 0,-27.735 0,0"
             style="fill:#ffdf3f;fill-opacity:1;fill-rule:nonzero;stroke:none"
             id="path26"
             inkscape:connector-curvature="0" /></g><g
           id="g28"
           transform="translate(29.1914,79.3701)"><path
             d="m 0,0 c 0,27.736 22.465,50.221 50.179,50.221 27.714,0 50.178,-22.485 50.178,-50.221 0,-27.735 -22.464,-50.219 -50.178,-50.219 C 22.465,-50.219 0,-27.735 0,0"
             style="fill:#ffdf3f;fill-opacity:1;fill-rule:nonzero;stroke:none"
             id="path30"
             inkscape:connector-curvature="0" /></g><g
           id="g32"
           transform="translate(45.1885,79.3945)"><path
             d="M 0,0 C 0,18.88 15.293,34.187 34.159,34.187 53.024,34.187 68.315,18.88 68.315,0 68.315,-18.881 53.024,-34.186 34.159,-34.186 15.293,-34.186 0,-18.881 0,0"
             style="fill:#ee3248;fill-opacity:1;fill-rule:nonzero;stroke:none"
             id="path34"
             inkscape:connector-curvature="0" /></g><g
           id="g36"
           transform="translate(45.1885,79.3945)"><path
             d="M 0,0 C 0,18.88 15.293,34.187 34.159,34.187 53.024,34.187 68.315,18.88 68.315,0 68.315,-18.881 53.024,-34.186 34.159,-34.186 15.293,-34.186 0,-18.881 0,0"
             style="fill:#ee3248;fill-opacity:1;fill-rule:nonzero;stroke:none"
             id="path38"
             inkscape:connector-curvature="0" /></g><g
           id="g40"
           transform="translate(104.9844,95.3057)"><path
             d="m 0,0 -1.049,3.029 -1.012,-3.031 -3.271,-0.001 2.652,-1.878 -1.017,-3.028 2.652,1.878 2.643,-1.878 -0.971,3.02 2.607,1.886 L 0,0 Z"
             style="fill:#ffdf3f;fill-opacity:1;fill-rule:nonzero;stroke:none"
             id="path42"
             inkscape:connector-curvature="0" /></g><g
           id="g44"
           transform="translate(94.4727,105.252)"><path
             d="m 0,0 -1.051,3.028 -1.012,-3.03 -3.273,-0.002 2.652,-1.878 -1.015,-3.027 2.652,1.877 2.643,-1.877 -0.973,3.018 2.609,1.887 L 0,0 Z"
             style="fill:#ffdf3f;fill-opacity:1;fill-rule:nonzero;stroke:none"
             id="path46"
             inkscape:connector-curvature="0" /></g><g
           id="g48"
           transform="translate(80.228,109.1797)"><path
             d="m 0,0 -1.051,3.029 -1.01,-3.032 -3.273,0 2.652,-1.878 -1.016,-3.028 2.653,1.878 L 1.596,-4.909 0.625,-1.89 3.233,-0.003 0,0 Z"
             style="fill:#ffdf3f;fill-opacity:1;fill-rule:nonzero;stroke:none"
             id="path50"
             inkscape:connector-curvature="0" /></g><g
           id="g52"
           transform="translate(66.1553,105.25)"><path
             d="m 0,0 -1.052,3.03 -1.011,-3.032 -3.272,-0.001 2.652,-1.877 -1.015,-3.029 2.652,1.878 2.642,-1.878 -0.972,3.02 2.608,1.886 L 0,0 Z"
             style="fill:#ffdf3f;fill-opacity:1;fill-rule:nonzero;stroke:none"
             id="path54"
             inkscape:connector-curvature="0" /></g><g
           id="g56"
           transform="translate(55.6416,95.3057)"><path
             d="m 0,0 -1.051,3.029 -1.011,-3.031 -3.272,-0.001 2.652,-1.878 -1.016,-3.028 2.652,1.878 2.642,-1.878 -0.971,3.02 2.607,1.886 L 0,0 Z"
             style="fill:#ffdf3f;fill-opacity:1;fill-rule:nonzero;stroke:none"
             id="path58"
             inkscape:connector-curvature="0" /></g><g
           id="g60"
           transform="translate(51.7441,80.2695)"><path
             d="M 0,0 -1.051,3.03 -2.062,-0.001 -5.335,-0.003 -2.682,-1.88 -3.698,-4.908 -1.046,-3.031 1.597,-4.908 0.625,-1.89 3.232,-0.003 0,0 Z"
             style="fill:#ffdf3f;fill-opacity:1;fill-rule:nonzero;stroke:none"
             id="path62"
             inkscape:connector-curvature="0" /></g><g
           id="g64"
           transform="translate(56.2197,66.5586)"><path
             d="M 0,0 -1.052,3.029 -2.063,-0.002 -5.335,-0.004 -2.683,-1.881 -3.698,-4.91 -1.047,-3.031 1.596,-4.91 0.624,-1.891 3.232,-0.004 0,0 Z"
             style="fill:#ffdf3f;fill-opacity:1;fill-rule:nonzero;stroke:none"
             id="path66"
             inkscape:connector-curvature="0" /></g><g
           id="g68"
           transform="translate(65.5771,56.6152)"><path
             d="m 0,0 -1.051,3.027 -1.011,-3.03 -3.272,0 2.652,-1.878 -1.016,-3.029 2.652,1.879 L 1.596,-4.91 0.625,-1.891 3.232,-0.003 0,0 Z"
             style="fill:#ffdf3f;fill-opacity:1;fill-rule:nonzero;stroke:none"
             id="path70"
             inkscape:connector-curvature="0" /></g><g
           id="g72"
           transform="translate(80.228,51.4883)"><path
             d="m 0,0 -1.051,3.029 -1.012,-3.03 -3.271,0 2.652,-1.878 -1.017,-3.029 2.652,1.877 2.643,-1.877 -0.971,3.021 2.608,1.886 L 0,0 Z"
             style="fill:#ffdf3f;fill-opacity:1;fill-rule:nonzero;stroke:none"
             id="path74"
             inkscape:connector-curvature="0" /></g><g
           id="g76"
           transform="translate(94.8809,56.6133)"><path
             d="m 0,0 -1.051,3.029 -1.012,-3.03 -3.273,-0.003 2.654,-1.876 -1.017,-3.029 2.652,1.878 2.643,-1.878 -0.971,3.018 2.607,1.887 L 0,0 Z"
             style="fill:#ffdf3f;fill-opacity:1;fill-rule:nonzero;stroke:none"
             id="path78"
             inkscape:connector-curvature="0" /></g><g
           id="g80"
           transform="translate(104.2402,66.5586)"><path
             d="m 0,0 -1.051,3.027 -1.012,-3.031 -3.273,0 2.654,-1.877 -1.019,-3.029 2.654,1.879 L 1.596,-4.91 0.625,-1.891 3.232,-0.004 0,0 Z"
             style="fill:#ffdf3f;fill-opacity:1;fill-rule:nonzero;stroke:none"
             id="path82"
             inkscape:connector-curvature="0" /></g><g
           id="g84"
           transform="translate(109.0508,80.333)"><path
             d="m 0,0 -1.051,3.03 -1.01,-3.032 -3.273,-0.002 2.654,-1.876 -1.019,-3.029 2.654,1.879 2.643,-1.879 -0.971,3.02 2.605,1.885 L 0,0 Z"
             style="fill:#ffdf3f;fill-opacity:1;fill-rule:nonzero;stroke:none"
             id="path86"
             inkscape:connector-curvature="0" /></g><g
           id="g88"
           transform="translate(91.1172,61.2949)"><path
             d="m 0,0 c -5.938,6.232 -18.267,11.75 -32.89,13.961 l -0.068,0.373 c -0.156,0.887 -0.256,1.77 -0.302,2.646 C -18.115,14.807 -4.379,9.07 2.361,1.783 1.621,1.139 0.832,0.543 0,0"
             style="fill:#ffdf3f;fill-opacity:1;fill-rule:nonzero;stroke:none"
             id="path90"
             inkscape:connector-curvature="0" /></g><g
           id="g92"
           transform="translate(82.0645,57.9824)"><path
             d="m 0,0 c -2.747,4.684 -11.121,9.271 -21.803,11.43 -0.534,1.027 -0.99,2.107 -1.358,3.234 C -10.902,12.551 -0.107,7.197 3.004,0.598 2.365,0.424 1.713,0.277 1.047,0.158 0.697,0.098 0.35,0.045 0,0"
             style="fill:#ffdf3f;fill-opacity:1;fill-rule:nonzero;stroke:none"
             id="path94"
             inkscape:connector-curvature="0" /></g><g
           id="g96"
           transform="translate(61.9697,66.6582)"><path
             d="M 0,0 C 5.757,-1.543 10.644,-4.277 12.259,-8.227 7.336,-7.012 2.982,-4.084 0,0"
             style="fill:#ffdf3f;fill-opacity:1;fill-rule:nonzero;stroke:none"
             id="path98"
             inkscape:connector-curvature="0" /></g><g
           id="g100"
           transform="translate(79.7573,78.5664)"><path
             d="M 0,0 C 7.399,2.036 14.866,2.808 21.106,2.241 21.157,1.489 21.168,0.741 21.141,0.002 16.11,0.497 10.04,0.083 3.678,-1.361 c 1.088,-0.428 2.151,-0.871 3.19,-1.33 5.205,0.802 10.162,0.695 13.933,-0.411 -0.134,-0.734 -0.306,-1.459 -0.517,-2.169 -2.547,0.763 -5.877,1.052 -9.616,0.787 2.936,-1.487 5.616,-3.09 7.985,-4.793 -0.457,-0.864 -0.971,-1.694 -1.539,-2.487 -8.916,6.465 -23.001,11.773 -38.997,13.998 0.064,0.975 0.193,1.937 0.386,2.879 5.026,-0.704 9.925,-1.711 14.579,-2.976 9.202,3.2 18.764,4.844 27.157,4.884 C 20.454,6.306 20.631,5.572 20.774,4.823 13.553,4.856 5.229,3.644 -3.179,1.046 -2.104,0.712 -1.045,0.362 0,0"
             style="fill:#ffdf3f;fill-opacity:1;fill-rule:nonzero;stroke:none"
             id="path102"
             inkscape:connector-curvature="0" /></g><g
           id="g104"
           transform="translate(104.9844,95.3057)"><path
             d="m 0,0 -1.049,3.029 -1.012,-3.031 -3.271,-0.001 2.652,-1.878 -1.017,-3.028 2.652,1.878 2.643,-1.878 -0.971,3.02 2.607,1.886 L 0,0 Z"
             style="fill:#ffdf3f;fill-opacity:1;fill-rule:nonzero;stroke:none"
             id="path106"
             inkscape:connector-curvature="0" /></g><g
           id="g108"
           transform="translate(94.4727,105.252)"><path
             d="m 0,0 -1.051,3.028 -1.012,-3.03 -3.273,-0.002 2.652,-1.878 -1.015,-3.027 2.652,1.877 2.643,-1.877 -0.973,3.018 2.609,1.887 L 0,0 Z"
             style="fill:#ffdf3f;fill-opacity:1;fill-rule:nonzero;stroke:none"
             id="path110"
             inkscape:connector-curvature="0" /></g><g
           id="g112"
           transform="translate(80.228,109.1797)"><path
             d="m 0,0 -1.051,3.029 -1.01,-3.032 -3.273,0 2.652,-1.878 -1.016,-3.028 2.653,1.878 L 1.596,-4.909 0.625,-1.89 3.233,-0.003 0,0 Z"
             style="fill:#ffdf3f;fill-opacity:1;fill-rule:nonzero;stroke:none"
             id="path114"
             inkscape:connector-curvature="0" /></g><g
           id="g116"
           transform="translate(66.1553,105.25)"><path
             d="m 0,0 -1.052,3.03 -1.011,-3.032 -3.272,-0.001 2.652,-1.877 -1.015,-3.029 2.652,1.878 2.642,-1.878 -0.972,3.02 2.608,1.886 L 0,0 Z"
             style="fill:#ffdf3f;fill-opacity:1;fill-rule:nonzero;stroke:none"
             id="path118"
             inkscape:connector-curvature="0" /></g><g
           id="g120"
           transform="translate(55.6416,95.3057)"><path
             d="m 0,0 -1.051,3.029 -1.011,-3.031 -3.272,-0.001 2.652,-1.878 -1.016,-3.028 2.652,1.878 2.642,-1.878 -0.971,3.02 2.607,1.886 L 0,0 Z"
             style="fill:#ffdf3f;fill-opacity:1;fill-rule:nonzero;stroke:none"
             id="path122"
             inkscape:connector-curvature="0" /></g><g
           id="g124"
           transform="translate(51.7441,80.2695)"><path
             d="M 0,0 -1.051,3.03 -2.062,-0.001 -5.335,-0.003 -2.682,-1.88 -3.698,-4.908 -1.046,-3.031 1.597,-4.908 0.625,-1.89 3.232,-0.003 0,0 Z"
             style="fill:#ffdf3f;fill-opacity:1;fill-rule:nonzero;stroke:none"
             id="path126"
             inkscape:connector-curvature="0" /></g><g
           id="g128"
           transform="translate(56.2197,66.5586)"><path
             d="M 0,0 -1.052,3.029 -2.063,-0.002 -5.335,-0.004 -2.683,-1.881 -3.698,-4.91 -1.047,-3.031 1.596,-4.91 0.624,-1.891 3.232,-0.004 0,0 Z"
             style="fill:#ffdf3f;fill-opacity:1;fill-rule:nonzero;stroke:none"
             id="path130"
             inkscape:connector-curvature="0" /></g><g
           id="g132"
           transform="translate(65.5771,56.6152)"><path
             d="m 0,0 -1.051,3.027 -1.011,-3.03 -3.272,0 2.652,-1.878 -1.016,-3.029 2.652,1.879 L 1.596,-4.91 0.625,-1.891 3.232,-0.003 0,0 Z"
             style="fill:#ffdf3f;fill-opacity:1;fill-rule:nonzero;stroke:none"
             id="path134"
             inkscape:connector-curvature="0" /></g><g
           id="g136"
           transform="translate(80.228,51.4883)"><path
             d="m 0,0 -1.051,3.029 -1.012,-3.03 -3.271,0 2.652,-1.878 -1.017,-3.029 2.652,1.877 2.643,-1.877 -0.971,3.021 2.608,1.886 L 0,0 Z"
             style="fill:#ffdf3f;fill-opacity:1;fill-rule:nonzero;stroke:none"
             id="path138"
             inkscape:connector-curvature="0" /></g><g
           id="g140"
           transform="translate(94.8809,56.6133)"><path
             d="m 0,0 -1.051,3.029 -1.012,-3.03 -3.273,-0.003 2.654,-1.876 -1.017,-3.029 2.652,1.878 2.643,-1.878 -0.971,3.018 2.607,1.887 L 0,0 Z"
             style="fill:#ffdf3f;fill-opacity:1;fill-rule:nonzero;stroke:none"
             id="path142"
             inkscape:connector-curvature="0" /></g><g
           id="g144"
           transform="translate(104.2402,66.5586)"><path
             d="m 0,0 -1.051,3.027 -1.012,-3.031 -3.273,0 2.654,-1.877 -1.019,-3.029 2.654,1.879 L 1.596,-4.91 0.625,-1.891 3.232,-0.004 0,0 Z"
             style="fill:#ffdf3f;fill-opacity:1;fill-rule:nonzero;stroke:none"
             id="path146"
             inkscape:connector-curvature="0" /></g><g
           id="g148"
           transform="translate(109.0508,80.333)"><path
             d="m 0,0 -1.051,3.03 -1.01,-3.032 -3.273,-0.002 2.654,-1.876 -1.019,-3.029 2.654,1.879 2.643,-1.879 -0.971,3.02 2.605,1.885 L 0,0 Z"
             style="fill:#ffdf3f;fill-opacity:1;fill-rule:nonzero;stroke:none"
             id="path150"
             inkscape:connector-curvature="0" /></g><g
           id="g152"
           transform="translate(91.1172,61.2949)"><path
             d="m 0,0 c -5.938,6.232 -18.267,11.75 -32.89,13.961 l -0.068,0.373 c -0.156,0.887 -0.256,1.77 -0.302,2.646 C -18.115,14.807 -4.379,9.07 2.361,1.783 1.621,1.139 0.832,0.543 0,0"
             style="fill:#ffdf3f;fill-opacity:1;fill-rule:nonzero;stroke:none"
             id="path154"
             inkscape:connector-curvature="0" /></g><g
           id="g156"
           transform="translate(82.0645,57.9824)"><path
             d="m 0,0 c -2.747,4.684 -11.121,9.271 -21.803,11.43 -0.534,1.027 -0.99,2.107 -1.358,3.234 C -10.902,12.551 -0.107,7.197 3.004,0.598 2.365,0.424 1.713,0.277 1.047,0.158 0.697,0.098 0.35,0.045 0,0"
             style="fill:#ffdf3f;fill-opacity:1;fill-rule:nonzero;stroke:none"
             id="path158"
             inkscape:connector-curvature="0" /></g><g
           id="g160"
           transform="translate(61.9697,66.6582)"><path
             d="M 0,0 C 5.757,-1.543 10.644,-4.277 12.259,-8.227 7.336,-7.012 2.982,-4.084 0,0"
             style="fill:#ffdf3f;fill-opacity:1;fill-rule:nonzero;stroke:none"
             id="path162"
             inkscape:connector-curvature="0" /></g><g
           id="g164"
           transform="translate(79.7573,78.5664)"><path
             d="M 0,0 C 7.399,2.036 14.866,2.808 21.106,2.241 21.157,1.489 21.168,0.741 21.141,0.002 16.11,0.497 10.04,0.083 3.678,-1.361 c 1.088,-0.428 2.151,-0.871 3.19,-1.33 5.205,0.802 10.162,0.695 13.933,-0.411 -0.134,-0.734 -0.306,-1.459 -0.517,-2.169 -2.547,0.763 -5.877,1.052 -9.616,0.787 2.936,-1.487 5.616,-3.09 7.985,-4.793 -0.457,-0.864 -0.971,-1.694 -1.539,-2.487 -8.916,6.465 -23.001,11.773 -38.997,13.998 0.064,0.975 0.193,1.937 0.386,2.879 5.026,-0.704 9.925,-1.711 14.579,-2.976 9.202,3.2 18.764,4.844 27.157,4.884 C 20.454,6.306 20.631,5.572 20.774,4.823 13.553,4.856 5.229,3.644 -3.179,1.046 -2.104,0.712 -1.045,0.362 0,0"
             style="fill:#ffdf3f;fill-opacity:1;fill-rule:nonzero;stroke:none"
             id="path166"
             inkscape:connector-curvature="0" /></g></g></g><text
       transform="matrix(-0.74940813,0.66210834,0.66210834,0.74940813,54.9912,49.2842)"
       style="font-variant:normal;font-weight:normal;font-stretch:normal;font-size:10.0000248px;font-family:'Times New Roman';-inkscape-font-specification:TimesNewRomanPSMT;writing-mode:lr-tb;fill:#ee3248;fill-opacity:1;fill-rule:nonzero;stroke:none"
       id="text168"><tspan
         x="0"
         y="0"
         id="tspan170">•</tspan></text>
<text
       transform="matrix(-0.62096724,0.78383652,0.78382652,0.62096724,50.5693,53.3638)"
       style="font-variant:normal;font-weight:normal;font-stretch:normal;font-size:10.00004482px;font-family:'Times New Roman';-inkscape-font-specification:TimesNewRomanPSMT;writing-mode:lr-tb;fill:#ee3248;fill-opacity:1;fill-rule:nonzero;stroke:none"
       id="text172"><tspan
         x="0"
         y="0"
         id="tspan174">P</tspan></text>
<text
       transform="matrix(-0.48989182,0.87178323,0.87178323,0.48989182,47.0635,57.7207)"
       style="font-variant:normal;font-weight:normal;font-stretch:normal;font-size:9.99996281px;font-family:'Times New Roman';-inkscape-font-specification:TimesNewRomanPSMT;writing-mode:lr-tb;fill:#ee3248;fill-opacity:1;fill-rule:nonzero;stroke:none"
       id="text176"><tspan
         x="0"
         y="0"
         id="tspan178">R</tspan></text>
<text
       transform="matrix(-0.32378073,0.94613215,0.94613215,0.32378073,43.7725,63.522)"
       style="font-variant:normal;font-weight:normal;font-stretch:normal;font-size:9.99997711px;font-family:'Times New Roman';-inkscape-font-specification:TimesNewRomanPSMT;writing-mode:lr-tb;fill:#ee3248;fill-opacity:1;fill-rule:nonzero;stroke:none"
       id="text180"><tspan
         x="0"
         y="0"
         id="tspan182">O</tspan></text>
<text
       transform="matrix(-0.15279957,0.9882572,0.9882572,0.15279957,41.4736,70.4053)"
       style="font-variant:normal;font-weight:normal;font-stretch:normal;font-size:10.00002861px;font-family:'Times New Roman';-inkscape-font-specification:TimesNewRomanPSMT;writing-mode:lr-tb;fill:#ee3248;fill-opacity:1;fill-rule:nonzero;stroke:none"
       id="text184"><tspan
         x="0"
         y="0"
         id="tspan186">T</tspan></text>
<text
       transform="matrix(0.01617999,0.9998691,0.9998691,-0.01617999,40.502,76.4326)"
       style="font-variant:normal;font-weight:normal;font-stretch:normal;font-size:10.00000858px;font-family:'Times New Roman';-inkscape-font-specification:TimesNewRomanPSMT;writing-mode:lr-tb;fill:#ee3248;fill-opacity:1;fill-rule:nonzero;stroke:none"
       id="text188"><tspan
         x="0"
         y="0"
         id="tspan190">E</tspan></text>
<text
       transform="matrix(0.15818005,0.98741029,0.98741029,-0.15818005,40.5317,82.5522)"
       style="font-variant:normal;font-weight:normal;font-stretch:normal;font-size:9.99999714px;font-family:'Times New Roman';-inkscape-font-specification:TimesNewRomanPSMT;writing-mode:lr-tb;fill:#ee3248;fill-opacity:1;fill-rule:nonzero;stroke:none"
       id="text192"><tspan
         x="0"
         y="0"
         id="tspan194">C</tspan></text>
<text
       transform="matrix(0.31890849,0.94778551,0.94778551,-0.31890849,41.6162,89.1733)"
       style="font-variant:normal;font-weight:normal;font-stretch:normal;font-size:10.00004768px;font-family:'Times New Roman';-inkscape-font-specification:TimesNewRomanPSMT;writing-mode:lr-tb;fill:#ee3248;fill-opacity:1;fill-rule:nonzero;stroke:none"
       id="text196"><tspan
         x="0"
         y="0"
         id="tspan198">T</tspan></text>
<text
       transform="matrix(0.46667063,0.88443119,0.88443119,-0.46667063,43.561,94.957)"
       style="font-variant:normal;font-weight:normal;font-stretch:normal;font-size:9.99998665px;font-family:'Times New Roman';-inkscape-font-specification:TimesNewRomanPSMT;writing-mode:lr-tb;fill:#ee3248;fill-opacity:1;fill-rule:nonzero;stroke:none"
       id="text200"><tspan
         x="0"
         y="0"
         id="tspan202">E</tspan></text>
<text
       transform="matrix(0.61441958,0.78897946,0.78897946,-0.61441958,46.3809,100.3989)"
       style="font-variant:normal;font-weight:normal;font-stretch:normal;font-size:10.00000668px;font-family:'Times New Roman';-inkscape-font-specification:TimesNewRomanPSMT;writing-mode:lr-tb;fill:#ee3248;fill-opacity:1;fill-rule:nonzero;stroke:none"
       id="text204"><tspan
         x="0"
         y="0"
         id="tspan206">D</tspan></text>
<text
       transform="matrix(0.79226177,0.61018136,0.61018136,-0.79226177,52.623,107.8867)"
       style="font-variant:normal;font-weight:normal;font-stretch:normal;font-size:9.99997807px;font-family:'Times New Roman';-inkscape-font-specification:TimesNewRomanPSMT;writing-mode:lr-tb;fill:#ee3248;fill-opacity:1;fill-rule:nonzero;stroke:none"
       id="text208"><tspan
         x="0"
         y="0"
         id="tspan210">D</tspan></text>
<text
       transform="matrix(0.88403639,0.46741809,0.46741809,-0.88403639,58.3701,112.252)"
       style="font-variant:normal;font-weight:normal;font-stretch:normal;font-size:10.00004101px;font-family:'Times New Roman';-inkscape-font-specification:TimesNewRomanPSMT;writing-mode:lr-tb;fill:#ee3248;fill-opacity:1;fill-rule:nonzero;stroke:none"
       id="text212"><tspan
         x="0"
         y="0"
         id="tspan214">E</tspan></text>
<text
       transform="matrix(0.94360661,0.33106881,0.33106881,-0.94360661,63.7993,115.0977)"
       style="font-variant:normal;font-weight:normal;font-stretch:normal;font-size:10.00003624px;font-family:'Times New Roman';-inkscape-font-specification:TimesNewRomanPSMT;writing-mode:lr-tb;fill:#ee3248;fill-opacity:1;fill-rule:nonzero;stroke:none"
       id="text216"><tspan
         x="0"
         y="0"
         id="tspan218">S</tspan></text>
<text
       transform="matrix(0.97508509,0.22183116,0.22183116,-0.97508509,69.0698,116.8794)"
       style="font-variant:normal;font-weight:normal;font-stretch:normal;font-size:9.99994755px;font-family:'Times New Roman';-inkscape-font-specification:TimesNewRomanPSMT;writing-mode:lr-tb;fill:#ee3248;fill-opacity:1;fill-rule:nonzero;stroke:none"
       id="text220"><tspan
         x="0"
         y="0"
         id="tspan222">I</tspan></text>
<text
       transform="matrix(0.99612931,0.08789994,0.08789994,-0.99612931,72.2969,117.7495)"
       style="font-variant:normal;font-weight:normal;font-stretch:normal;font-size:10.00000668px;font-family:'Times New Roman';-inkscape-font-specification:TimesNewRomanPSMT;writing-mode:lr-tb;fill:#ee3248;fill-opacity:1;fill-rule:nonzero;stroke:none"
       id="text224"><tspan
         x="0"
         y="0"
         id="tspan226">G</tspan></text>
<text
       transform="matrix(0.99512816,-0.09858982,-0.09858982,-0.99512816,79.5269,118.3833)"
       style="font-variant:normal;font-weight:normal;font-stretch:normal;font-size:10.00001812px;font-family:'Times New Roman';-inkscape-font-specification:TimesNewRomanPSMT;writing-mode:lr-tb;fill:#ee3248;fill-opacity:1;fill-rule:nonzero;stroke:none"
       id="text228"><tspan
         x="0"
         y="0"
         id="tspan230">N</tspan></text>
<text
       transform="matrix(0.96028834,-0.27900952,-0.27900952,-0.96028834,86.7368,117.6646)"
       style="font-variant:normal;font-weight:normal;font-stretch:normal;font-size:10.00001717px;font-family:'Times New Roman';-inkscape-font-specification:TimesNewRomanPSMT;writing-mode:lr-tb;fill:#ee3248;fill-opacity:1;fill-rule:nonzero;stroke:none"
       id="text232"><tspan
         x="0"
         y="0"
         id="tspan234">A</tspan></text>
<text
       transform="matrix(0.91187341,-0.41047154,-0.41047154,-0.91187341,92.623,115.9946)"
       style="font-variant:normal;font-weight:normal;font-stretch:normal;font-size:9.99996281px;font-family:'Times New Roman';-inkscape-font-specification:TimesNewRomanPSMT;writing-mode:lr-tb;fill:#ee3248;fill-opacity:1;fill-rule:nonzero;stroke:none"
       id="text236"><tspan
         x="0"
         y="0"
         id="tspan238">T</tspan></text>
<text
       transform="matrix(0.85645441,-0.51622266,-0.51622266,-0.85645441,98.1646,113.4082)"
       style="font-variant:normal;font-weight:normal;font-stretch:normal;font-size:9.9999485px;font-family:'Times New Roman';-inkscape-font-specification:TimesNewRomanPSMT;writing-mode:lr-tb;fill:#ee3248;fill-opacity:1;fill-rule:nonzero;stroke:none"
       id="text240"><tspan
         x="0"
         y="0"
         id="tspan242">I</tspan></text>
<text
       transform="matrix(0.77955,-0.62634,-0.62634,-0.77955,101.0986,111.7925)"
       style="font-variant:normal;font-weight:normal;font-stretch:normal;font-size:10px;font-family:'Times New Roman';-inkscape-font-specification:TimesNewRomanPSMT;writing-mode:lr-tb;fill:#ee3248;fill-opacity:1;fill-rule:nonzero;stroke:none"
       id="text244"><tspan
         x="0"
         y="0"
         id="tspan246">O</tspan></text>
<text
       transform="matrix(0.64954945,-0.76031935,-0.76031935,-0.64954945,106.7422,107.2593)"
       style="font-variant:normal;font-weight:normal;font-stretch:normal;font-size:10.00000858px;font-family:'Times New Roman';-inkscape-font-specification:TimesNewRomanPSMT;writing-mode:lr-tb;fill:#ee3248;fill-opacity:1;fill-rule:nonzero;stroke:none"
       id="text248"><tspan
         x="0"
         y="0"
         id="tspan250">N</tspan></text>
<text
       transform="matrix(0.43458938,-0.90062871,-0.90062871,-0.43458938,112.8218,99.6465)"
       style="font-variant:normal;font-weight:normal;font-stretch:normal;font-size:10.00001431px;font-family:'Times New Roman';-inkscape-font-specification:TimesNewRomanPSMT;writing-mode:lr-tb;fill:#ee3248;fill-opacity:1;fill-rule:nonzero;stroke:none"
       id="text252"><tspan
         x="0"
         y="0"
         id="tspan254">O</tspan></text>
<text
       transform="matrix(0.27689966,-0.96089884,-0.96089884,-0.27689966,115.8989,93.103)"
       style="font-variant:normal;font-weight:normal;font-stretch:normal;font-size:10.0000124px;font-family:'Times New Roman';-inkscape-font-specification:TimesNewRomanPSMT;writing-mode:lr-tb;fill:#ee3248;fill-opacity:1;fill-rule:nonzero;stroke:none"
       id="text256"><tspan
         x="0"
         y="0"
         id="tspan258">F</tspan></text>
<text
       transform="matrix(0.0549998,-0.99848637,-0.99848637,-0.0549998,117.9399,85.2866)"
       style="font-variant:normal;font-weight:normal;font-stretch:normal;font-size:10.00003624px;font-family:'Times New Roman';-inkscape-font-specification:TimesNewRomanPSMT;writing-mode:lr-tb;fill:#ee3248;fill-opacity:1;fill-rule:nonzero;stroke:none"
       id="text260"><tspan
         x="0"
         y="0"
         id="tspan262">O</tspan></text>
<text
       transform="matrix(-0.11454971,-0.99341752,-0.99341752,0.11454971,118.3188,78.0596)"
       style="font-variant:normal;font-weight:normal;font-stretch:normal;font-size:10.0000248px;font-family:'Times New Roman';-inkscape-font-specification:TimesNewRomanPSMT;writing-mode:lr-tb;fill:#ee3248;fill-opacity:1;fill-rule:nonzero;stroke:none"
       id="text264"><tspan
         x="0"
         y="0"
         id="tspan266">R</tspan></text>
<text
       transform="matrix(-0.24102003,-0.97052014,-0.97052014,0.24102003,117.4512,71.4551)"
       style="font-variant:normal;font-weight:normal;font-stretch:normal;font-size:9.99999809px;font-family:'Times New Roman';-inkscape-font-specification:TimesNewRomanPSMT;writing-mode:lr-tb;fill:#ee3248;fill-opacity:1;fill-rule:nonzero;stroke:none"
       id="text268"><tspan
         x="0"
         y="0"
         id="tspan270">I</tspan></text>
<text
       transform="matrix(-0.37328817,-0.92771544,-0.92771544,0.37328817,116.7773,68.1792)"
       style="font-variant:normal;font-weight:normal;font-stretch:normal;font-size:10.00004864px;font-family:'Times New Roman';-inkscape-font-specification:TimesNewRomanPSMT;writing-mode:lr-tb;fill:#ee3248;fill-opacity:1;fill-rule:nonzero;stroke:none"
       id="text272"><tspan
         x="0"
         y="0"
         id="tspan274">G</tspan></text>
<text
       transform="matrix(-0.49879124,-0.86672216,-0.86672216,0.49879124,113.9595,61.5381)"
       style="font-variant:normal;font-weight:normal;font-stretch:normal;font-size:9.9999752px;font-family:'Times New Roman';-inkscape-font-specification:TimesNewRomanPSMT;writing-mode:lr-tb;fill:#ee3248;fill-opacity:1;fill-rule:nonzero;stroke:none"
       id="text276"><tspan
         x="0"
         y="0"
         id="tspan278">I</tspan></text>
<text
       transform="matrix(-0.61413859,-0.78919819,-0.78919819,0.61413859,112.3906,58.5488)"
       style="font-variant:normal;font-weight:normal;font-stretch:normal;font-size:10.00002289px;font-family:'Times New Roman';-inkscape-font-specification:TimesNewRomanPSMT;writing-mode:lr-tb;fill:#ee3248;fill-opacity:1;fill-rule:nonzero;stroke:none"
       id="text280"><tspan
         x="0"
         y="0"
         id="tspan282">N</tspan></text>
<text
       transform="matrix(-0.75943869,-0.65057888,-0.65057888,0.75943869,106.0962,51.1768)"
       style="font-variant:normal;font-weight:normal;font-stretch:normal;font-size:10.00001717px;font-family:'Times New Roman';-inkscape-font-specification:TimesNewRomanPSMT;writing-mode:lr-tb;fill:#ee3248;fill-opacity:1;fill-rule:nonzero;stroke:none"
       id="text284"><tspan
         x="0"
         y="0"
         id="tspan286">•</tspan></text>
</g></svg>